<svg xmlns="http://www.w3.org/2000/svg" viewBox="0 0 238.02 238.35"><defs><style>.cls-1{fill:#bab4eb;}.cls-2{fill:#f9553a;stroke-width:9px;}.cls-2,.cls-3,.cls-5,.cls-6{stroke:#454b52;}.cls-2,.cls-3,.cls-4,.cls-5,.cls-6{stroke-miterlimit:10;}.cls-3{fill:#92e9d3;}.cls-3,.cls-5,.cls-6{stroke-width:5px;}.cls-4{fill:#fff;stroke:#464b52;stroke-width:4.53px;}.cls-5{fill:#639e8f;}.cls-6{fill:#24b261;}</style></defs><title>cardiology-thumb-icon-specialties</title><g id="Layer_2" data-name="Layer 2"><g id="Cardio"><path class="cls-1" d="M113.5,227A113.5,113.5,0,1,1,227,113.5,113.63,113.63,0,0,1,113.5,227Z"/><path class="cls-2" d="M165,200.44c5-.3,68.5-57.72,68.5-89.25,0-31-64.59-39.69-67.1-2.23-2.5-37.46-68.28-28.79-68.28,2.23,0,31.53,66.27,88.3,66.27,88.6Z"/><path class="cls-3" d="M120.82,235.85c-25.31,0-45.82-17-45.82-37.94V142H94v55.91C94,208.25,106.45,217,121.1,217,140,217,156,205.48,156,191.84V146h18v45.84c0,12.2-5.64,23.53-16.35,31.88C147.64,231.55,134.72,235.85,120.82,235.85Z"/><path class="cls-4" d="M86.69,148.11a49.25,49.25,0,0,1-18.23-95l4.47,11.21a37.18,37.18,0,1,0,27.91.15l4.6-11.16a49.26,49.26,0,0,1-18.75,94.81Z"/><circle class="cls-5" cx="70.75" cy="59.06" r="13.43"/><circle class="cls-5" cx="103.19" cy="59.06" r="13.43"/><path class="cls-5" d="M84,152.67h.73c-12.37-.15-23.63-5-33-13.59a52.8,52.8,0,0,1-16.47-32.29l16.63-2.12c2.25,17.5,17.37,31.24,34.4,31.4,16.68-.17,32.09-14.62,34.37-32.35l15.14,2.12c-3.35,26-25.8,46.5-51.8,46.83Z"/><circle class="cls-4" cx="164.74" cy="133.32" r="15.78"/><circle class="cls-6" cx="165.06" cy="133.44" r="5.66"/></g></g></svg>