<svg xmlns="http://www.w3.org/2000/svg" viewBox="0 0 227 243.59"><defs><style>.cls-1{fill:#a4ccff;}.cls-2{fill:#afc8e9;}.cls-2,.cls-4,.cls-5{stroke:#454b52;}.cls-2,.cls-3,.cls-4,.cls-5{stroke-miterlimit:10;}.cls-2,.cls-5{stroke-width:5px;}.cls-3{fill:#fff;stroke:#464b52;}.cls-3,.cls-4{stroke-width:4.84px;}.cls-4,.cls-5{fill:#739dd3;}</style></defs><title>clinic-thumb-icon</title><g id="Layer_2" data-name="Layer 2"><g id="Clinic"><path class="cls-1" d="M113.5,227A113.5,113.5,0,1,1,227,113.5,113.63,113.63,0,0,1,113.5,227Z"/><path class="cls-2" d="M113.18,241.09c-27.08,0-48.92-18.21-48.92-40.59V141h20V200.5c0,11.07,13.15,20.41,28.83,20.41,20.2,0,37.17-12.32,37.17-26.9V146h20V194c0,13.06-6.13,25.17-17.58,34.11C142,236.49,128.05,241.09,113.18,241.09Z"/><path class="cls-3" d="M76.56,147.23A52.7,52.7,0,0,1,57.06,45.57l4.78,12a39.78,39.78,0,1,0,29.86.17l4.92-11.94A52.7,52.7,0,0,1,76.56,147.23Z"/><circle class="cls-4" cx="59.51" cy="51.95" r="14.37"/><circle class="cls-4" cx="94.21" cy="51.95" r="14.37"/><path class="cls-5" d="M74.26,152.1h.5c-13.23-.16-25.43-5.31-35.45-14.54A56.59,56.59,0,0,1,21.61,103l17.76-2.26c2.41,18.73,18.57,33.42,36.78,33.6,17.85-.18,34.32-15.64,36.76-34.61L129.4,102c-3.58,27.87-28.14,49.75-55.14,50.1Z"/><circle class="cls-3" cx="160.06" cy="131.4" r="16.88"/><circle class="cls-5" cx="160.41" cy="131.52" r="6.06"/></g></g></svg>