<svg xmlns="http://www.w3.org/2000/svg" viewBox="0 0 227 235.5"><defs><style>.cls-1{fill:#ffd3b9;}.cls-2{fill:#bf9278;}.cls-2,.cls-3{stroke:#464b52;stroke-width:5px;}.cls-2,.cls-3,.cls-6,.cls-7{stroke-miterlimit:10;}.cls-3{fill:#fff;}.cls-4{fill:#464b52;}.cls-5{fill:#f99483;}.cls-6{fill:#f9553a;stroke:#454b52;stroke-width:3px;}.cls-7{fill:none;stroke:#57dc62;stroke-linecap:round;stroke-width:4px;}</style></defs><title>Asset 1</title><g id="Layer_2" data-name="Layer 2"><g id="Contact_Us" data-name="Contact Us"><path class="cls-1" d="M113.5,227A113.5,113.5,0,1,1,227,113.5,113.63,113.63,0,0,1,113.5,227Z"/><rect class="cls-2" x="80.5" y="61" width="140" height="172"/><rect class="cls-3" x="89.5" y="72" width="122" height="151"/><path class="cls-4" d="M163,57.5V25.15c0-3.57-2.24-4.65-5.81-4.65H142.78c-3.57,0-7.78,1.08-7.78,4.65V57.5H103v20h95v-20Zm-12.42-20A4.51,4.51,0,1,1,155.09,33,4.51,4.51,0,0,1,150.58,37.5Z"/><circle class="cls-5" cx="150.66" cy="95.8" r="16.15"/><polygon class="cls-6" points="160.5 92 153.5 92 153.5 86 147.5 86 147.5 92 141.5 92 141.5 99 147.5 99 147.5 105 153.5 105 153.5 99 160.5 99 160.5 92"/><rect class="cls-4" x="107" y="119.5" width="18" height="19"/><rect class="cls-4" x="135" y="122.5" width="45" height="4"/><rect class="cls-4" x="135" y="131.5" width="31" height="5"/><polyline class="cls-7" points="111.69 124.5 115.09 133.17 130.36 111.94"/><rect class="cls-4" x="107" y="191.5" width="18" height="19"/><rect class="cls-4" x="135" y="194.5" width="45" height="4"/><rect class="cls-4" x="135" y="203.5" width="31" height="5"/><polyline class="cls-7" points="111.69 196.5 115.09 205.17 130.36 183.94"/><rect class="cls-4" x="107" y="155.5" width="18" height="19"/><rect class="cls-4" x="135" y="158.5" width="45" height="4"/><rect class="cls-4" x="135" y="167.5" width="31" height="5"/><polyline class="cls-7" points="111.69 160.78 115.09 169.45 130.36 148.22"/></g></g></svg>