<svg xmlns="http://www.w3.org/2000/svg" viewBox="0 0 240 228.5"><defs><style>.cls-1{fill:#bab4eb;}.cls-2{fill:#21191d;stroke-width:6px;}.cls-2,.cls-3{stroke:#464b52;stroke-miterlimit:10;}.cls-3,.cls-4{fill:#ebedf7;}.cls-3{stroke-width:4px;opacity:0.5;}.cls-4{opacity:0.75;}</style></defs><title>diagnostic-thumb-icon-specialties</title><g id="Layer_2" data-name="Layer 2"><g id="XRay"><path class="cls-1" d="M113.5,227A113.5,113.5,0,1,1,227,113.5,113.63,113.63,0,0,1,113.5,227Z"/><path class="cls-2" d="M237,201.54c0,11.9-7.59,24-19.48,24H61.06C49.17,225.5,37,212.84,37,200.94V101.07C37,89.17,49.17,82.5,61.06,82.5h157C230,82.5,237,89.17,237,101.07Z"/><path class="cls-3" d="M200.7,174.7c3.37-14.4-7.14-16.76-7.14-16s0,.35-.26.55c-1.07.73-5.9,2.6-7.14,1.25l-3.89-4.24c1.17-.78-1.43-7.63-2.85-11s.52-18.74,1.43-19.25,2.08-5,2.47-7.81,4.54-5.46,5.45-6,2-12-5.58-10.65-12.33,16.22-16.61,14.79,4.93-9.08,6.49-10.77,5.58-7.65,5.82-10.76a4.59,4.59,0,0,0-2.32-4.4c-.13,9.6-11,15.59-12.59,14.94s-2.59-8.13,2.34-10.34,7-9.52,7-9.52L167.71,89c-3.41,4.67-4.76,3.47-4.76,3.47H148.63s-1.35,1.19-4.76-3.47l-5.62-1.77s2.08,6.44,7,8.64,3.89,9.25,2.34,9.9S135.14,100.24,135,90.64a4.35,4.35,0,0,0-2.32,4.29c.24,3.11,4.26,9,5.82,10.71S149.28,115,145,116.38s-9-13.5-16.61-14.8-6.49,10.11-5.58,10.63,5.06,3.11,5.45,6,1.56,7.27,2.46,7.78,2.85,15.83,1.43,19.2-4,10.12-2.85,10.9c0,0-3.17,3.23-3.89,4-1.24,1.35-6.06-1-7.14-1.69-.3-.2-.26-.65-.26-1.43s-10.51,3.34-7.14,17.74,1.16,39.8-1.43,48.8H119L123.72,194S134,202.23,140.61,202s6.59-9.1,15.16-9.1,8.56,7.52,15.18,7.78,16.9-6.39,16.9-6.39l4.69,29.25h9.6C199.54,214.5,197.33,189.1,200.7,174.7Zm-75.08,6.78c-1.39-2.16,3.81-12.8,5.45-13.41s-.13,1.47,1.58,1.64S127.11,183.82,125.62,181.48Zm28.54-2.08c-.35.52-2.69,3.82-6.49,3.37s-8.73-4.15-9-8.13,1.21-9.24,3.2-9.86c0,0,6.31,1,8,4s3.55,4.24,3.63,5.36S154.51,178.89,154.16,179.41Zm-2-14c0,.78-5.15-4-6.27-5.8s-5.6-3.29-6.29-5.88.7-17.29,2.43-19.12a22.53,22.53,0,0,1,27.47,0c1.73,1.83,3.14,16.52,2.45,19.12s-5.16,4.07-6.29,5.88-6.29,6.57-6.29,5.8-3.22-2.4-3.61-2.4S152.17,164.67,152.17,165.39Zm20.73,9.26c-.26,4-5.19,7.69-9,8.13s-6.15-2.85-6.49-3.37.6-4.15.69-5.28,2-2.42,3.63-5.36,8-4,8-4C171.69,165.41,173.16,170.67,172.9,174.65ZM186,181.48c-1.49,2.33-8.74-11.59-7-11.76s-.06-2.25,1.58-1.64S187.34,179.32,186,181.48Z"/><polygon class="cls-4" points="64 101.97 64 117 64 124.76 64 137.29 64 145.06 64 159.38 64 167.15 64 180.28 64 188.04 64 201.77 64 211.5 72.37 211.5 79 211.5 79 203.5 71 203.5 71 189.5 79 189.5 79 181.5 71 181.5 71 168.5 79 168.5 79 161.5 71 161.5 71 146.5 79 146.5 79 140.5 71 140.5 71 126.5 79 126.5 79 119.5 71 119.5 71 104.5 79 104.5 79 96.5 64 96.5 64 101.97"/></g></g></svg>