<svg xmlns="http://www.w3.org/2000/svg" viewBox="0 0 227.97 240.31"><defs><style>.cls-1{fill:#a9e9d9;}.cls-2{fill:none;stroke:#92e9d3;}.cls-10,.cls-11,.cls-13,.cls-2,.cls-3,.cls-6,.cls-7,.cls-8,.cls-9{stroke-miterlimit:10;}.cls-3,.cls-4{fill:#fcdd8d;}.cls-10,.cls-11,.cls-13,.cls-3,.cls-6,.cls-7,.cls-8,.cls-9{stroke:#464b52;}.cls-10,.cls-11,.cls-13,.cls-3,.cls-6,.cls-8{stroke-width:4px;}.cls-10,.cls-5{fill:#464b52;}.cls-6{fill:#938558;}.cls-7{fill:#bb9c4b;stroke-width:3px;}.cls-8{fill:#c18360;}.cls-12,.cls-9{fill:#fff;}.cls-9{stroke-width:4.53px;}.cls-11{fill:#e9a97a;}.cls-13{fill:#adc9dd;}</style></defs><title>grooming-thumb-icon-services</title><g id="Layer_2" data-name="Layer 2"><g id="Grooming"><path class="cls-1" d="M113.5,227A113.5,113.5,0,1,1,227,113.5,113.63,113.63,0,0,1,113.5,227Z"/><path class="cls-2" d="M90.43,104l0,.14Z"/><path class="cls-2" d="M90.67,104.75l.08.21Z"/><path class="cls-2" d="M90.93,105.41c0,.1.09.18.14.27C91,105.59,91,105.51,90.93,105.41Z"/><path class="cls-2" d="M91.21,106a3.17,3.17,0,0,0,.3.43A3.17,3.17,0,0,1,91.21,106Z"/><path class="cls-2" d="M91.51,106.38q.32.38.61.74C91.92,106.88,91.72,106.64,91.51,106.38Z"/><path class="cls-2" d="M163.6,104l0,.14Z"/><path class="cls-2" d="M163.36,104.75l-.08.21Z"/><path class="cls-2" d="M163.1,105.41c0,.1-.09.18-.14.27C163,105.59,163.05,105.51,163.1,105.41Z"/><path class="cls-2" d="M162.82,106a3.17,3.17,0,0,1-.3.43A3.17,3.17,0,0,0,162.82,106Z"/><path class="cls-2" d="M162.52,106.38q-.32.38-.61.74C162.1,106.88,162.3,106.64,162.52,106.38Z"/><path class="cls-2" d="M152.68,131.32c-2.47-1.13-18.14-8.06-25.43-6.41-.08,0-.26,0-.26.07l-.24-.07c-7.29-1.65-22.94,5.29-25.41,6.41"/><path class="cls-3" d="M49.25,116.5S50.33,202.07,69,221c23.61,23.94,109.25,22.2,134.5,0C223.28,203.61,217,116.5,217,116.5S93.5,134,49.25,116.5Z"/><path class="cls-4" d="M49.25,116.5S50.33,202.07,69,221c23.61,23.94,109.25,22.2,134.5,0C223.28,203.61,217,116.5,217,116.5S93.5,134,49.25,116.5Z"/><path class="cls-5" d="M134.08,240.31c-30.59,0-55.45-6.69-66.51-17.9-19-19.28-20.28-102.35-20.33-105.88l0-3,2.77,1.1c12.81,5.07,33.82,7.64,62.42,7.64,49,0,103.76-7.68,104.31-7.76l2.12-.3.15,2.14c.26,3.6,6.12,88.3-14.17,106.15C192.52,233.32,164.75,240.31,134.08,240.31ZM51.31,119.39c.4,15.07,3.12,84,19.11,100.21,10.17,10.31,34.56,16.71,63.66,16.71,29.75,0,56.48-6.6,68.1-16.81,7.67-6.74,12.33-26.57,13.49-57.35.73-19.29-.17-37.34-.53-43.38-10.64,1.42-59,7.51-102.73,7.51C85.26,126.28,64.73,124,51.31,119.39Z"/><path class="cls-6" d="M216,116.64c-20.79-4.19-50.59-6.81-83.71-6.81-32.74,0-62.24,2.56-83,6.67C91.15,133.07,204,118.27,216,116.64Z"/><path class="cls-7" d="M50.34,141.15c.22,3.33.49,6.83.81,10.52,21.25,5.34,54.46,7.68,82.11,7.68,29,0,63.84-3.11,85-8.94,0-3.64.07-7.13,0-10.41-17.31,5.34-51.49,9.34-85,9.34C101.06,149.36,67.9,146.16,50.34,141.15Z"/><path class="cls-7" d="M57.11,192.83c.85,3.8,1.85,7.38,2.91,10.78,21.13,4.28,48.34,5.75,73.24,5.75,27.64,0,58.36-2.3,79.69-7.6.83-3.44,1.58-7,2.17-10.84-17.62,5.18-49,8.44-81.86,8.44C103.69,199.36,75.47,197.15,57.11,192.83Z"/><path class="cls-8" d="M91.51,106.38c-3.39-4-3.77-31.87,3-45C79.57,66.35,75,88.46,75,88.46c-3.47,10-.47,17.28,1.67,20.78C81.81,106.4,89.79,103,92,107.18a4.63,4.63,0,0,0,1.57,2A22,22,0,0,0,91.51,106.38Z"/><path class="cls-2" d="M90.21,103.13l0,.08Z"/><path class="cls-2" d="M89.83,101.13h0Z"/><polygon class="cls-2" points="89.66 100 89.66 100 89.66 100 89.66 100"/><path class="cls-2" d="M90,102.18v0Z"/><path class="cls-9" d="M95.29,113.36s-.35-2.6-3.14-6.17a21.27,21.27,0,0,1,1.39,2,4.63,4.63,0,0,1-1.57-2c-2.19-4.22-10.17-.77-15.35,2.06a15.34,15.34,0,0,0,1.69,2.33c-11.75,9.36-5,24.5,3.74,24.5s19.43-4.58,19.43-4.58S92.3,121.72,95.29,113.36Z"/><path class="cls-8" d="M162.52,106.38c3.39-4,3.77-31.87-3-45,14.94,5,19.55,27.09,19.55,27.09,3.47,10,.47,17.28-1.67,20.78-5.18-2.83-13.16-6.28-15.35-2.06a4.63,4.63,0,0,1-1.57,2A22,22,0,0,1,162.52,106.38Z"/><path class="cls-2" d="M163.82,103.13l0,.08Z"/><path class="cls-2" d="M164.2,101.13h0Z"/><polygon class="cls-2" points="164.36 100 164.36 100 164.36 100 164.36 100"/><path class="cls-2" d="M164,102.18v0Z"/><path class="cls-9" d="M158.73,113.36s.35-2.6,3.14-6.17a21.27,21.27,0,0,0-1.39,2,4.63,4.63,0,0,0,1.57-2c2.19-4.22,10.17-.77,15.35,2.06a15.34,15.34,0,0,1-1.69,2.33c11.75,9.36,5,24.5-3.74,24.5s-19.43-4.58-19.43-4.58S161.72,121.72,158.73,113.36Z"/><path class="cls-9" d="M159.51,61.37S144,36.68,127,36.68s-32.5,24.7-32.5,24.7c-6.76,13.14-6.38,41-3,45s3.78,7,3.78,7c-2.77,7.75,4.91,16.7,6.05,18,2.47-1.13,18.13-8.06,25.41-6.41l.24.07s.17,0,.26-.07c7.29-1.65,23,5.29,25.43,6.41,1.14-1.27,8.82-10.21,6-18,0,0,.39-3,3.78-7S166.27,74.52,159.51,61.37Z"/><path class="cls-10" d="M159.52,61.37c6.26,12.17,6.4,36.94,3.7,43.73-1.38-.76-5.7-3.59-8.65-10.37-3.55-8.17-16.92-15.28-18.71-21.46s-15.46-27.88,2.86-33.05C150.52,47,159.52,61.37,159.52,61.37Z"/><path class="cls-11" d="M138.72,40.22c11.8,6.83,20.8,21.15,20.8,21.15,6.26,12.17,6.4,36.94,3.7,43.73-1.38-.76-5.7-3.59-8.65-10.37a21.29,21.29,0,0,0-3.93-5.66,8.16,8.16,0,1,0-10.4-9.76c-2.15-2.1-3.83-4.11-4.38-6C134.07,67.1,120.4,45.39,138.72,40.22Z"/><path class="cls-5" d="M127,101.25c-1.84.4-14.16,3.6-12.87,16.32,1.26,12.45,11,11,12.87,10.61,2,.38,11.61,1.84,12.87-10.61C141.16,104.85,129,101.66,127,101.25Z"/><path class="cls-9" d="M127.26,124.91c-.08,0-.26,0-.26.07l-.24-.07c-7.13-1.61-22.27,5-25.23,6.33l0,.24c5.2,8.17,25.51,6,25.51,6s20.33,2.14,25.53-6l-.1-.27C149.28,129.79,134.33,123.31,127.26,124.91Z"/><circle class="cls-12" cx="149.58" cy="79.6" r="2.96"/><path class="cls-10" d="M94.5,61.37c-6.26,12.17-6.4,36.94-3.7,43.73,1.38-.76,5.7-3.59,8.65-10.37,3.55-8.17,16.92-15.28,18.71-21.46s15.46-27.88-2.86-33.05C103.5,47,94.5,61.37,94.5,61.37Z"/><path class="cls-11" d="M115.31,40.22C103.5,47,94.5,61.37,94.5,61.37c-6.26,12.17-6.4,36.94-3.7,43.73,1.38-.76,5.7-3.59,8.65-10.37a21.28,21.28,0,0,1,3.93-5.66,8.16,8.16,0,1,1,10.4-9.76c2.15-2.1,3.83-4.11,4.38-6C120,67.1,133.63,45.39,115.31,40.22Z"/><circle class="cls-12" cx="104.58" cy="79.6" r="2.96"/><circle class="cls-13" cx="199.37" cy="64.9" r="11.74"/><circle class="cls-13" cx="50.06" cy="102.22" r="7.05"/><circle class="cls-13" cx="62.88" cy="80.39" r="5.23"/><circle class="cls-13" cx="50.7" cy="60.57" r="4.15"/><circle class="cls-13" cx="196.04" cy="99.57" r="8.07"/><circle class="cls-13" cx="86.21" cy="42.4" r="5.9"/></g></g></svg>