<svg xmlns="http://www.w3.org/2000/svg" viewBox="0 0 244.75 228.5"><defs><style>.cls-1{fill:#a3bbd9;}.cls-2{fill:#d1b888;}.cls-2,.cls-3,.cls-4{stroke:#464b52;stroke-miterlimit:10;}.cls-2,.cls-4{stroke-width:5px;}.cls-3{fill:#fff;stroke-width:4.84px;}.cls-4{fill:#e1d5bf;}</style></defs><title>resources-thumb-icon</title><g id="Layer_2" data-name="Layer 2"><g id="Resources"><path class="cls-1" d="M113.5,227A113.5,113.5,0,1,1,227,113.5,113.63,113.63,0,0,1,113.5,227Z"/><ellipse class="cls-2" cx="148.66" cy="161.62" rx="78.71" ry="12.08"/><path class="cls-3" d="M87.63,164.83a17.43,17.43,0,0,0,20.86-7.7l45.75,16.09c0,.15,0,.29,0,.44,12.44-.13,24.08-.71,34.26-1.62,0-.09,0-.18,0-.26a17.43,17.43,0,1,0-27.11-19.56c-.1.28-.17.57-.25.85L115.8,137.16c.11-.27.24-.54.34-.82a17.43,17.43,0,1,0-33.39-1.72,17.42,17.42,0,0,0,4.88,30.22Z"/><path class="cls-4" d="M227.27,162.72c-2.05,6.39-36.46,11.23-78.61,11.23-43.47,0-78.71-5.53-78.71-12.21,0,0,0,.36,0,.32C49,183.23,49.06,204,70.27,226h156C247.26,205,247.56,183.65,227.27,162.72Z"/></g></g></svg>