<svg xmlns="http://www.w3.org/2000/svg" viewBox="0 0 247.27 236.64"><defs><style>.cls-1{fill:#a9e9d9;}.cls-2,.cls-5,.cls-6{fill:#436a61;}.cls-2,.cls-3,.cls-6,.cls-7{stroke:#464b52;}.cls-2,.cls-3,.cls-6,.cls-7,.cls-8{stroke-miterlimit:10;}.cls-2,.cls-3,.cls-7{stroke-width:6px;}.cls-3,.cls-4{fill:#fff;}.cls-6{stroke-width:4.02px;}.cls-7{fill:#ffeeb7;}.cls-8{fill:#f9553a;stroke:#454b52;stroke-width:4px;}</style></defs><title>services-thumb-icon</title><g id="Layer_2" data-name="Layer 2"><g id="Vet_Services" data-name="Vet Services"><path class="cls-1" d="M113.5,227A113.5,113.5,0,1,1,227,113.5,113.63,113.63,0,0,1,113.5,227Z"/><path class="cls-2" d="M241.79,126.19c-4-15-14.71-21.64-20.77-23.68S209.49,88.93,202.26,88s-17.63,2-22.54,2.86-22.61.55-26.07-1.19-7.52,0-14.08,0S129,88,125.51,89.68s-21.14,2-26.05,1.12S84.15,87,76.93,87.89s-12.73,12.41-18.8,14.42S41.37,111,37.3,125.93s-2.91,16.21,1.43,14.49S49.15,125.12,54.06,126s-2.62,13.86,0,11.27,15.9-11.25,12.41,5.79,8.66,6.94,10.09,16.19c1.24,8-13.53,56-17.19,66.57,2.93-4.94,12.61-14.11,11.35-9.09-1.45,5.78-.88,12.71,3.74,12.14s6.67-15.3,6.66-3.75,4.63,7.81,4.63,7.81c9.83-7.79,19.71-25.4,19.71-25.4,1.21,13,8.59,22.83,14.37,19.09,5.29-3.43,18.94,1.13,18.94,1.93v.12s-.09,0,0-.06,0,.06,0,.06v-.12c2-.8,14.32-5.32,19.6-1.88,5.77,3.76,13.64-6,14.88-19,0,0,9.93,17.64,19.74,25.45,0,0,4.68,3.76,4.7-7.79s2.05,3.18,6.67,3.76,5.22-6.35,3.79-12.13c-1.25-5,8.42,4.16,11.33,9.12-3.64-10.53-18.28-58.63-17-66.61,1.45-9.24,13.57.88,10.13-16.16s9.84-8.36,12.43-5.76-4.9-10.41,0-11.27,11,12.73,15.29,14.46S245.82,141.18,241.79,126.19Z"/><path class="cls-3" d="M173.46,207.64s-2.34-19.25-10.29-27.19-21.3-19.08-21.59-36.71c-.29-17.38,12.18-42.93-2.82-43.61v0s.1,0,0,0,0,0,0,0v0c-13,.68-1.81,26.23-2.09,43.61-.29,17.62-13,28.76-21,36.71-7.71,7.71-10.09,26.05-10.23,27.14l0,0c1.23,13,8.58,22.82,14.36,19.07,5.29-3.44,18.91,1.1,18.91,1.9v.12s-.09,0,0-.06,0,.06,0,.06v-.12c2-.8,14.36-5.34,19.64-1.9,5.75,3.74,13.57-6,14.86-18.86Z"/><circle class="cls-4" cx="106.98" cy="147.91" r="7.37"/><circle class="cls-5" cx="106.98" cy="147.91" r="3.68"/><circle class="cls-4" cx="172.09" cy="147.91" r="7.37"/><circle class="cls-5" cx="172.09" cy="147.91" r="3.68"/><path class="cls-6" d="M147.52,185.26c-2.42,0-7.9,2.79-7.9,2.79s-5.5-2.79-7.92-2.79-9.46.71-9.46,11.18,11.61,18.4,17.39,18.4S157,206.91,157,196.44,149.94,185.26,147.52,185.26Z"/><path class="cls-7" d="M54.41,135.31l.2-.24.16-.18.2-.22.19-.21.2-.21.23-.23.2-.2.27-.26.18-.17.32-.29.15-.13.38-.33,0,0a18.14,18.14,0,0,1,2.68-1.89h0l.56-.3s0,.15,0,.15a1.19,1.19,0,0,1,.56-.1h0c3.21-1,5.8-.74,5.8,7.11v0c24-17.94,51-27.42,79-27.42a122.17,122.17,0,0,1,68.45,20.28h0c3.26-2,9.14,3.44,10.77,5.68,2.6,3.56-4.9-14.26,0-15.43s11,17.38,15.29,19.76,5.49.68,1.46-19.81S227.09,91.06,221,88.28,209.49,69.69,202.26,68.5s-17.63,2.73-22.54,3.91-22.61.75-26.07-1.63-7.52,0-14.08,0-10.62-2.37-14.06,0-21.14,2.73-26.05,1.53-15.31-5.16-22.53-4S64.2,85.24,58.13,88,41.37,99.81,37.3,120.29s-2.91,22.17,1.43,19.81,10.42-20.92,15.33-19.72c1.5.37,1.84,2.28,1.66,4.66v0c0,.22,0,.44-.06.67v.05c0,.22-.05.45-.09.67v.07c0,.22-.07.45-.1.68v.08c0,.22-.08.45-.12.67l0,.1-.13.68,0,.08-.15.69v.06l-.16.7v0c-.37,1.6-.78,3.08-1,4.16l0,.12-.08.32,0,.16-.05.25,0,.15,0,.19,0,.13c0,.05,0,.1,0,.14s0,.07,0,.1a.45.45,0,0,0,0,.09.32.32,0,0,0,0,.06s0,0,0,0l0,0,.07,0,0,0,.11-.1.05-.05.21-.27.26-.34Z"/><polygon class="cls-8" points="98.76 92.46 88.76 92.46 88.76 82.46 78.76 82.46 78.76 92.46 68.76 92.46 68.76 102.46 78.76 102.46 78.76 112.46 88.76 112.46 88.76 102.46 98.76 102.46 98.76 92.46"/></g></g></svg>