<svg xmlns="http://www.w3.org/2000/svg" viewBox="0 0 239.67 245.5"><defs><style>.cls-1{fill:#bab4eb;}.cls-2{fill:#fff;}.cls-2,.cls-5{stroke:#464b52;stroke-width:5px;}.cls-2,.cls-3,.cls-5{stroke-miterlimit:10;}.cls-3{fill:#f9553a;stroke:#454b52;stroke-width:4px;}.cls-4{fill:#464b52;}.cls-5{fill:#ffd3b9;}</style></defs><title>specialties-thumb-icon</title><g id="Layer_2" data-name="Layer 2"><g id="Especialties"><path class="cls-1" d="M113.5,227A113.5,113.5,0,1,1,227,113.5,113.63,113.63,0,0,1,113.5,227Z"/><path class="cls-2" d="M133.45,155.94a6,6,0,0,0,6-6.32V50.26C139.5,47,137.59,45,134,45H41.11c-3.62,0-7.61,2-7.61,5.26v99.36c0,3.45,3.46,6.26,7.09,6.26l0,0,27.12,9.5s4.78,2.67,4.78,10.51h0A7.17,7.17,0,0,0,78.95,183H96a6.7,6.7,0,0,0,6.42-6.59h0c0-7.84,4.73-10.76,4.73-10.76Z"/><path class="cls-3" d="M47.07,63.5h78.87A6.07,6.07,0,0,1,132,69.57v71.87a6.06,6.06,0,0,1-6.06,6.06H47.07A6.07,6.07,0,0,1,41,141.43V69.57a6.07,6.07,0,0,1,6.07-6.07Z"/><rect class="cls-2" x="48.5" y="74" width="73" height="65"/><path class="cls-4" d="M84.92,27A9.93,9.93,0,0,0,75,37v7.5h5V37.84a4.87,4.87,0,0,1,4.89-4.75,4.09,4.09,0,0,1,4.11,4V44.5h5V36.16A9.09,9.09,0,0,0,84.92,27Z"/><path class="cls-4" d="M95,188.61c0,2.85-1.46,5.89-4.31,5.89H83.46c-2.85,0-5.46-3-5.46-5.89V182.5H95Z"/><path class="cls-5" d="M189.06,141h-1.78c-19.85,0-41.78,13.14-41.78,35.18v26.27C145.5,216,137.94,231,123,231h-1.78c-14.5,0-28.71-14.13-28.71-28.56V190h-12v12.44c0,21,19.67,40.56,40.71,40.56H123c10.16,0,19.09-4.73,25.59-12.87,5.91-7.39,8.91-17.38,8.91-27.68V176.18c0-11.39,11.69-23.18,29.78-23.18h1.78c14.15,0,22.44,8.58,22.44,23.18V190h12V176.18C223.5,154.84,210,141,189.06,141Z"/><path class="cls-3" d="M237.67,209.5c0-9.39-19.6-12-20.36-.67-.76-11.34-20.62-8.72-20.62.67,0,9.55,20.31,26.71,20.31,26.8h0C218,236.21,237.67,219.05,237.67,209.5Z"/><polygon class="cls-3" points="100 101.5 90 101.5 90 91.5 80 91.5 80 101.5 70 101.5 70 111.5 80 111.5 80 121.5 90 121.5 90 111.5 100 111.5 100 101.5"/></g></g></svg>