<svg xmlns="http://www.w3.org/2000/svg" viewBox="0 0 245 239.5"><defs><style>.cls-1{fill:#bab4eb;}.cls-2,.cls-8{fill:none;}.cls-2{stroke:#fff;stroke-width:6px;}.cls-2,.cls-3,.cls-5,.cls-6,.cls-7,.cls-8{stroke-miterlimit:10;}.cls-3{fill:#eec59c;}.cls-3,.cls-5,.cls-6,.cls-7,.cls-8{stroke:#454b52;}.cls-3,.cls-5,.cls-8{stroke-width:4px;}.cls-4{fill:#454b52;}.cls-5{fill:#4bc6d0;}.cls-6{fill:#d0def0;stroke-width:2px;opacity:0.75;}.cls-7{fill:#d4aa8a;stroke-width:3px;}</style></defs><title>surgery-thumb-icon-specialties</title><g id="Layer_2" data-name="Layer 2"><g id="Surgery"><path class="cls-1" d="M113.5,227A113.5,113.5,0,1,1,227,113.5,113.63,113.63,0,0,1,113.5,227Z"/><path class="cls-2" d="M107.25,81.29c7.55,7.55,9.28,18.07,9.28,18.07S106,97.64,98.46,90.09,86.75,74.44,89.18,72,99.7,73.74,107.25,81.29Z"/><path class="cls-2" d="M107.31,117.32c7.55-7.55,9.28-18.07,9.28-18.07s-10.52,1.73-18.07,9.28-11.71,15.64-9.28,18.07S99.75,124.87,107.31,117.32Z"/><path class="cls-3" d="M243,172.55c0,35-26.4,64.95-61.42,64.95h-1.49c-35.23,0-66.08-30.09-66.08-65.32V102.79A65.41,65.41,0,0,1,179.43,37.5,63.55,63.55,0,0,1,243,100.92Z"/><path class="cls-4" d="M116,117.5v5h13.8c2-3,5.08-4,8.58-5Z"/><path class="cls-4" d="M245,117.5v5H231.19c-2-3-5.08-4-8.58-5Z"/><path class="cls-5" d="M180.08,165.09c-16.95,1.08-53.48,42.64-53.48,42.64,11.38,17.46,31.08,29.77,53.48,29.77h1.49c25.18,0,46-16.27,56.22-37.54C237.8,200,197.12,164,180.08,165.09Z"/><path class="cls-4" d="M126.6,207s4.82-5.38,11.77-12.29C124.83,188.09,116,122.5,116,122.5h-.83l.83,49.68a63.61,63.61,0,0,0,11.44,36.24C127.11,207.94,126.92,207.46,126.6,207Z"/><path class="cls-4" d="M127.79,208.72c.3.43.6.86.92,1.28h0Q128.24,209.36,127.79,208.72Z"/><path class="cls-4" d="M243,122.5s-4.8,52.31-15.79,68.14c6.36,4.95,10.84,8.78,11.46,9.32A63.61,63.61,0,0,0,245,172.18V123.6Z"/><path class="cls-5" d="M114.37,101.5,241,100.92c-.79-35-26.89-61.35-61.42-61.35A64.93,64.93,0,0,0,114.37,101.5Z"/><rect class="cls-6" x="192" y="118.5" width="43" height="29" rx="13.49" ry="13.49"/><circle class="cls-7" cx="213.66" cy="132.63" r="5.89"/><rect class="cls-8" x="191" y="119.5" width="43" height="29" rx="13.49" ry="13.49"/><rect class="cls-4" x="169" y="129.5" width="23" height="5"/><rect class="cls-6" x="126" y="118.5" width="43" height="29" rx="13.49" ry="13.49"/><circle class="cls-7" cx="147.63" cy="132.63" r="5.89"/><rect class="cls-8" x="125" y="119.5" width="43" height="29" rx="13.49" ry="13.49"/></g></g></svg>