<svg xmlns="http://www.w3.org/2000/svg" viewBox="0 0 227 239.5"><defs><style>.cls-1{fill:#a9e9d9;}.cls-2{fill:#f9553a;}.cls-2,.cls-3,.cls-4{stroke:#464b52;stroke-miterlimit:10;stroke-width:4px;}.cls-3{fill:#fc8465;}.cls-4{fill:#fff6e6;}.cls-5{fill:#464b52;}</style></defs><title>vets-thumb-icon-services</title><g id="Layer_2" data-name="Layer 2"><g id="Vet"><path class="cls-1" d="M113.5,227A113.5,113.5,0,1,1,227,113.5,113.63,113.63,0,0,1,113.5,227Z"/><rect class="cls-2" x="105.18" y="62.46" width="116.7" height="23.16" transform="translate(12.35 170.84) rotate(-56.99)"/><rect class="cls-3" x="125.42" y="119.58" width="8.9" height="14.56" transform="translate(-47.27 166.6) rotate(-56.97)"/><path class="cls-3" d="M201.58,28.57,190,21.05,192.59,17c1-1.52,2.47-2.3,3.32-1.75l8.54,5.52a1.59,1.59,0,0,1,.57,1.51,4.85,4.85,0,0,1-.8,2.24Z"/><path class="cls-3" d="M184.09,64.58l-25.41,38.64s10.22-.47,13.61-.23c21.64,1.56,37.84,19.23,37.84,38.79,0,21.79-20.31,39.71-45.36,39.71-20.57,0-37.94-12-43.49-28H109c5.9,23,28.69,39.17,55.89,39.17,31.64,0,57.3-23.17,57.38-49.17h0C224.74,109.5,186.15,66.85,184.09,64.58Z"/><circle class="cls-4" cx="171.9" cy="81.66" r="16.48"/><circle class="cls-2" cx="171.9" cy="81.66" r="7.44"/><rect class="cls-2" x="107.5" y="205.5" width="112" height="28" rx="7.45" ry="7.45"/><path class="cls-5" d="M127.5,236.6a3,3,0,0,1-2.75,2.9h-5.26a3.19,3.19,0,0,1-3-2.9v-3.1h11Z"/><path class="cls-5" d="M211.5,236.6c0,1.46-.9,2.9-2.36,2.9h-5.26c-1.46,0-2.38-1.45-2.38-2.9v-3.1h10Z"/><polygon class="cls-3" points="127.39 205.5 164.64 186.63 199.72 205.5 127.39 205.5"/><circle class="cls-4" cx="164.65" cy="185.18" r="16.48"/><circle class="cls-2" cx="164.65" cy="185.18" r="7.44"/><rect class="cls-4" x="69.5" y="148.5" width="90" height="12" rx="4.01" ry="4.01"/></g></g></svg>